# xmcd
#
# Track frame offsets:
#	187
#	15875
#	31850
#	56470
#	75255
#	96130
#	117887
#	140550
#	161097
#	179887
#	195652
#	214145
#
# Disc length: 3141 seconds
#
# Revision: 1
# Processed by: cddbd v1.4PL0 Copyright (c) Steve Scherf et al.
# Submitted via: EasyCDDAExtractor 5.0.7
#
DISCID=980c430c
DTITLE=Various Artist - Dung Buon Nua Em
DYEAR=1900
DGENRE=
TTITLE0=Ngoc Lan and Tran Phuc - Thuong nhau ngay mua
TTITLE1=Kim Anh - Duong nao em di
TTITLE2=Tran Phuc - Anh yeu em
TTITLE3=Carol Kim - Nuoc mat mot linh hon
TTITLE4=Duy Quang - Nhung nu hon doi
TTITLE5=Nhu Mai - Mot doi Yeu anh
TTITLE6=Tran Phuc - Dan ba
TTITLE7=Ngoc Lan - Dung buon nua em
TTITLE8=Carol Kim - Ta tinh
TTITLE9=Duy Quang - Huyen thoai
TTITLE10=Kim Anh - Tinh vo canh bay
TTITLE11=Tran Phuc - 10 nam yeu em
EXTD=
EXTT0=
EXTT1=
EXTT2=
EXTT3=
EXTT4=
EXTT5=
EXTT6=
EXTT7=
EXTT8=
EXTT9=
EXTT10=
EXTT11=
PLAYORDER=
